REM DIRINDEX 1\2,1\3,1\4,1\5
REM DIRNAME folder01,folder02,folder03,folder04,folder05
TITLE ""
FILE "1Q_t_0333-0342.mp3" MP3
  TRACK 01 AUDIO
    TITLE "3:cjc004_1900"
    INDEX 01 00:00:00
  TRACK 02 AUDIO
    TITLE "0:"
    INDEX 01 00:01:19
  TRACK 03 AUDIO
    TITLE "4:cjc004_1901"
    INDEX 01 00:01:44
  TRACK 04 AUDIO
    TITLE "0:"
    INDEX 01 00:02:43
  TRACK 05 AUDIO
    TITLE "5:cjc004_1902"
    INDEX 01 00:02:69
  TRACK 06 AUDIO
    TITLE "0:"
    INDEX 01 00:07:60
  TRACK 07 AUDIO
    TITLE "3:cjc004_1903"
    INDEX 01 00:08:32
  TRACK 08 AUDIO
    TITLE "0:"
    INDEX 01 00:09:24
  TRACK 09 AUDIO
    TITLE "4:cjc004_1904"
    INDEX 01 00:09:57
  TRACK 10 AUDIO
    TITLE "0:"
    INDEX 01 00:11:13
  TRACK 11 AUDIO
    TITLE "5:cjc004_1905"
    INDEX 01 00:11:39
  TRACK 12 AUDIO
    TITLE "0:"
    INDEX 01 00:15:27
  TRACK 13 AUDIO
    TITLE "3:cjc004_1906"
    INDEX 01 00:16:04
  TRACK 14 AUDIO
    TITLE "0:"
    INDEX 01 00:17:21
  TRACK 15 AUDIO
    TITLE "4:cjc004_1907"
    INDEX 01 00:17:49
  TRACK 16 AUDIO
    TITLE "0:"
    INDEX 01 00:18:54
  TRACK 17 AUDIO
    TITLE "5:cjc004_1908"
    INDEX 01 00:19:07
  TRACK 18 AUDIO
    TITLE "0:"
    INDEX 01 00:23:34
  TRACK 19 AUDIO
    TITLE "3:cjc004_1909"
    INDEX 01 00:24:18
  TRACK 20 AUDIO
    TITLE "0:"
    INDEX 01 00:25:37
  TRACK 21 AUDIO
    TITLE "4:cjc004_1910"
    INDEX 01 00:25:68
  TRACK 22 AUDIO
    TITLE "0:"
    INDEX 01 00:27:04
  TRACK 23 AUDIO
    TITLE "5:cjc004_1911"
    INDEX 01 00:27:34
  TRACK 24 AUDIO
    TITLE "0:"
    INDEX 01 00:32:64
  TRACK 25 AUDIO
    TITLE "3:cjc004_1912"
    INDEX 01 00:33:40
  TRACK 26 AUDIO
    TITLE "0:"
    INDEX 01 00:34:61
  TRACK 27 AUDIO
    TITLE "4:cjc004_1913"
    INDEX 01 00:35:14
  TRACK 28 AUDIO
    TITLE "0:"
    INDEX 01 00:36:44
  TRACK 29 AUDIO
    TITLE "5:cjc004_1914"
    INDEX 01 00:37:05
  TRACK 30 AUDIO
    TITLE "0:"
    INDEX 01 00:42:06
  TRACK 31 AUDIO
    TITLE "3:cjc004_1915"
    INDEX 01 00:42:65
  TRACK 32 AUDIO
    TITLE "0:"
    INDEX 01 00:44:12
  TRACK 33 AUDIO
    TITLE "4:cjc004_1916"
    INDEX 01 00:44:40
  TRACK 34 AUDIO
    TITLE "0:"
    INDEX 01 00:45:61
  TRACK 35 AUDIO
    TITLE "5:cjc004_1917"
    INDEX 01 00:46:13
  TRACK 36 AUDIO
    TITLE "0:"
    INDEX 01 00:50:19
  TRACK 37 AUDIO
    TITLE "3:cjc004_1918"
    INDEX 01 00:51:01
  TRACK 38 AUDIO
    TITLE "0:"
    INDEX 01 00:52:02
  TRACK 39 AUDIO
    TITLE "4:cjc004_1919"
    INDEX 01 00:52:32
  TRACK 40 AUDIO
    TITLE "0:"
    INDEX 01 00:53:58
  TRACK 41 AUDIO
    TITLE "5:cjc004_1920"
    INDEX 01 00:54:11
  TRACK 42 AUDIO
    TITLE "0:"
    INDEX 01 00:59:22
  TRACK 43 AUDIO
    TITLE "3:cjc004_1921"
    INDEX 01 00:59:69
  TRACK 44 AUDIO
    TITLE "0:"
    INDEX 01 01:00:66
  TRACK 45 AUDIO
    TITLE "4:cjc004_1922"
    INDEX 01 01:01:19
  TRACK 46 AUDIO
    TITLE "0:"
    INDEX 01 01:02:34
  TRACK 47 AUDIO
    TITLE "5:cjc004_1923"
    INDEX 01 01:02:57
  TRACK 48 AUDIO
    TITLE "0:"
    INDEX 01 01:07:72
  TRACK 49 AUDIO
    TITLE "3:cjc004_1924"
    INDEX 01 01:08:52
  TRACK 50 AUDIO
    TITLE "0:"
    INDEX 01 01:09:46
  TRACK 51 AUDIO
    TITLE "4:cjc004_1925"
    INDEX 01 01:10:02
  TRACK 52 AUDIO
    TITLE "0:"
    INDEX 01 01:11:21
  TRACK 53 AUDIO
    TITLE "5:cjc004_1926"
    INDEX 01 01:11:51
  TRACK 54 AUDIO
    TITLE "0:"
    INDEX 01 01:15:64
  TRACK 55 AUDIO
    TITLE "3:cjc004_1927"
    INDEX 01 01:16:50
  TRACK 56 AUDIO
    TITLE "0:"
    INDEX 01 01:17:69
  TRACK 57 AUDIO
    TITLE "4:cjc004_1928"
    INDEX 01 01:18:17
  TRACK 58 AUDIO
    TITLE "0:"
    INDEX 01 01:19:36
  TRACK 59 AUDIO
    TITLE "5:cjc004_1929"
    INDEX 01 01:19:68
  TRACK 60 AUDIO
    TITLE "0:"
    INDEX 01 01:23:54
